<svg width="54" height="54" viewBox="0 0 54 54" fill="none" xmlns="http://www.w3.org/2000/svg">
<path d="M27 52.998C20.0602 52.998 13.5316 50.298 8.6168 45.3832C3.70195 40.4684 1.00195 33.9398 1.00195 27C1.00195 20.0602 3.70195 13.5316 8.6168 8.6168C13.5316 3.70195 20.0602 1.00195 27 1.00195C33.9398 1.00195 40.4684 3.70195 45.3832 8.6168C50.298 13.5316 52.998 20.0602 52.998 27C52.998 33.9398 50.298 40.4684 45.3832 45.3832C40.4684 50.298 33.9398 52.998 27 52.998Z" fill="#FF6600"/>
<path d="M27 2.00391C30.375 2.00391 33.6445 2.66836 36.7242 3.96562C39.6984 5.2207 42.3773 7.02422 44.666 9.32344C46.9547 11.6227 48.7687 14.291 50.0238 17.2652C51.3316 20.3555 51.9961 23.625 51.9961 27C51.9961 30.375 51.3316 33.6445 50.0344 36.7242C48.7793 39.6984 46.9758 42.3773 44.6766 44.666C42.3773 46.9547 39.709 48.7687 36.7348 50.0238C33.6445 51.3316 30.375 51.9961 27 51.9961C23.625 51.9961 20.3555 51.3316 17.2758 50.0344C14.3016 48.7793 11.6227 46.9758 9.33398 44.6766C7.04531 42.3773 5.23125 39.709 3.97617 36.7348C2.66836 33.6445 2.00391 30.375 2.00391 27C2.00391 23.625 2.66836 20.3555 3.96562 17.2758C5.2207 14.3016 7.02422 11.6227 9.32344 9.33398C11.6227 7.04531 14.291 5.23125 17.2652 3.97617C20.3555 2.66836 23.625 2.00391 27 2.00391ZM27 0C12.0867 0 0 12.0867 0 27C0 41.9133 12.0867 54 27 54C41.9133 54 54 41.9133 54 27C54 12.0867 41.9133 0 27 0Z" fill="#FF6600"/>
<path d="M34.8778 20.7641L34.8795 20.7658C35.2998 21.179 35.3056 21.861 34.8885 22.2901C34.665 22.504 34.3902 22.6093 34.1121 22.6093C33.8218 22.6093 33.5519 22.5064 33.3477 22.3022L29.8039 18.7584L29.8039 18.7584L29.8016 18.7562C29.0744 18.0383 28.6742 17.0803 28.6742 16.0534C28.6742 15.0265 29.0744 14.0685 29.8016 13.3506L29.8023 13.3499L33.3657 9.81816C33.366 9.81794 33.3662 9.81771 33.3664 9.81748C33.7954 9.39653 34.4802 9.4011 34.8946 9.82266C35.3162 10.2516 35.3119 10.9369 34.8901 11.3515L34.8901 11.3515L34.8884 11.3532L32.1673 14.0532L31.3057 14.9081H32.5195H36.7172C40.7129 14.9081 43.9586 18.1546 43.9586 22.1389V25.9042C43.9586 26.5034 43.4758 26.9862 42.8765 26.9862C42.2773 26.9862 41.7945 26.5034 41.7945 25.9042L41.7945 22.1389L41.7945 22.1368C41.7828 19.342 39.5144 17.0721 36.7172 17.0721H32.3718H31.1584L32.0196 17.927L34.8778 20.7641Z" fill="white" stroke="white"/>
<path d="M42.7923 33.7188C40.8516 31.852 39.2274 30.7762 37.6665 30.3227C36.1688 29.8903 33.9118 29.827 31.6653 32.0208L31.6548 32.0313L29.9251 33.7504C28.7438 33.0754 26.6028 31.6727 24.2825 29.3524L24.1032 29.1731C21.7829 26.8528 20.3907 24.7012 19.7052 23.5305L21.4243 21.8008L21.4348 21.7903C23.618 19.5543 23.5653 17.2973 23.1329 15.7891C22.6794 14.2282 21.6036 12.604 19.7368 10.6633C17.7012 8.55395 14.4001 8.43794 12.2169 10.3891L12.1747 10.4208C12.1536 10.4418 12.1325 10.4629 12.1114 10.484C10.0653 12.5301 8.98953 15.3989 9.00008 18.7633C9.03172 24.4375 12.143 30.9239 17.3321 36.1129C18.313 37.0938 19.4204 38.0536 20.6333 38.9817C21.3294 39.509 22.3208 39.3825 22.8481 38.6864C23.3755 37.9903 23.2489 36.9989 22.5528 36.4715C21.4454 35.6278 20.4434 34.7524 19.568 33.8665C14.9591 29.2575 12.1852 23.6043 12.1641 18.7317C12.1536 16.2426 12.8919 14.1649 14.3157 12.7305H14.3262C15.2333 11.9184 16.6044 11.9606 17.4587 12.8465C20.897 16.4114 20.6966 18.004 19.1778 19.5543L16.6466 22.1067C16.1825 22.5708 16.0559 23.2668 16.3196 23.868C16.3829 24.0157 17.9544 27.4856 21.8673 31.3985L22.0466 31.5778C25.9489 35.4801 29.4294 37.0516 29.577 37.1254C30.1782 37.3891 30.8743 37.2625 31.3384 36.7985L33.8907 34.2672C35.4411 32.759 37.0442 32.5481 40.5985 35.9864C41.4739 36.8301 41.5266 38.2118 40.7145 39.1188L40.704 39.1293C39.2696 40.5532 37.1919 41.2915 34.7028 41.2809C32.72 41.2704 30.4102 40.7219 28.0372 39.6989C27.2356 39.3508 26.3075 39.72 25.9595 40.5215C25.6114 41.3231 25.9805 42.2512 26.7821 42.5993C29.5876 43.8122 32.2454 44.4239 34.6817 44.4344H34.7555C38.0884 44.4344 40.9255 43.3586 42.961 41.3231C42.9821 41.302 43.0032 41.2809 43.0243 41.2598L43.0559 41.2176C45.0177 39.0661 44.9016 35.7543 42.7923 33.7188Z" fill="white"/>
</svg>
