<svg width="32" height="32" viewBox="0 0 32 32" fill="none" xmlns="http://www.w3.org/2000/svg">
<path d="M30.8375 1.52728L24.3375 0.0273108C23.6313 -0.135186 22.9063 0.233556 22.6188 0.896042L19.6188 7.89589C19.3563 8.50838 19.5313 9.22712 20.05 9.64586L23.8375 12.7458C21.5875 17.5394 17.6563 21.5269 12.7625 23.8206L9.66252 20.0331C9.23752 19.5144 8.52502 19.3394 7.91252 19.6019L0.912511 22.6018C0.24376 22.8956 -0.12499 23.6206 0.0375101 24.3268L1.53751 30.8267C1.69376 31.5016 2.29376 31.9891 3.00001 31.9891C19.0063 31.9891 32 19.0207 32 2.98975C32 2.28976 31.5188 1.68353 30.8375 1.52728Z" fill="#FF6600"/>
</svg>
